<?xml version="1.0" standalone="no"?>
<!DOCTYPE svg PUBLIC "-//W3C//DTD SVG 20010904//EN"
 "http://www.w3.org/TR/2001/REC-SVG-20010904/DTD/svg10.dtd">
<svg version="1.0" xmlns="http://www.w3.org/2000/svg"
 width="2880.000000pt" height="1964.000000pt" viewBox="0 0 2880.000000 1964.000000"
 preserveAspectRatio="xMidYMid meet">

<g transform="translate(0.000000,1964.000000) scale(0.100000,-0.100000)"
fill="#000000" stroke="none">
<path d="M0 19463 c0 -138 3 -174 12 -165 20 20 38 14 38 -13 0 -15 -9 -31
-25 -41 l-25 -16 0 -819 c0 -451 3 -819 6 -819 4 0 49 32 100 70 51 39 95 70
98 70 3 0 6 -13 6 -29 0 -26 -13 -40 -105 -108 l-104 -78 -1 -844 0 -844 23
19 c12 11 60 54 107 94 47 41 113 101 148 134 l62 60 0 -36 c0 -33 -9 -44
-113 -140 -62 -56 -138 -123 -169 -148 l-57 -45 -1 -793 0 -794 48 41 c27 22
113 106 190 186 l142 146 0 -36 c0 -30 -9 -46 -48 -88 -78 -86 -152 -159 -245
-241 l-87 -78 0 -677 1 -676 104 107 c57 59 125 135 152 169 l48 62 3 -37 c4
-45 -18 -75 -191 -252 l-117 -121 2 -689 3 -689 86 100 c47 55 106 126 132
158 l47 58 0 -36 c0 -41 -9 -54 -172 -243 l-98 -112 0 -718 0 -717 88 90 c48
50 113 120 144 155 l57 65 1 -34 c0 -37 -31 -76 -199 -252 l-90 -94 -1 -4862
0 -4863 14400 0 14400 0 0 9820 0 9820 -7805 0 -7804 0 -73 -43 c-40 -23 -124
-67 -187 -97 -63 -30 -151 -74 -195 -98 -335 -177 -608 -278 -946 -347 -19 -4
-74 -27 -122 -51 -219 -110 -410 -172 -703 -228 -77 -15 -357 -46 -415 -46
-36 0 -94 -7 -130 -14 -255 -56 -324 -69 -475 -91 -93 -13 -242 -29 -330 -36
-163 -12 -720 -16 -836 -6 -35 4 -118 9 -184 12 -66 4 -205 15 -310 25 -365
35 -465 40 -1135 50 -701 11 -1153 3 -1365 -26 -215 -29 -682 -149 -812 -209
-17 -8 -35 -15 -39 -15 -13 0 -278 -121 -294 -135 -8 -6 -23 -15 -32 -18 -39
-14 -298 -186 -328 -217 -3 -3 -18 -16 -35 -29 -92 -70 -270 -261 -353 -378
-184 -260 -338 -748 -407 -1293 -8 -69 -20 -159 -25 -200 -5 -41 -11 -93 -12
-115 -1 -22 -6 -46 -12 -54 -8 -11 -8 -13 2 -7 10 6 11 -2 5 -36 -16 -97 -6
-1345 12 -1603 3 -38 12 -214 20 -390 9 -176 20 -403 25 -505 5 -102 9 -205 8
-230 -1 -40 -2 -37 -9 20 -31 258 -56 688 -51 913 1 73 -2 117 -8 117 -6 0
-10 -21 -11 -47 0 -27 -4 -70 -8 -98 l-7 -50 -7 35 c-3 19 -9 71 -13 115 -9
105 -6 1304 4 1319 6 10 9 90 11 291 1 96 30 585 35 594 3 4 8 36 12 71 5 50
3 61 -8 58 -22 -8 -99 -434 -145 -813 l-8 -60 -7 100 c-8 107 0 180 63 535 43
240 143 630 175 682 5 7 9 20 11 28 1 8 7 16 13 18 5 2 8 7 5 12 -13 20 142
477 183 540 9 14 17 30 18 37 2 12 18 45 41 88 6 11 26 49 44 85 17 36 42 79
54 95 12 17 31 44 41 60 l19 30 -40 -32 c-141 -111 -338 -373 -461 -613 -26
-50 -48 -89 -50 -88 -7 8 38 172 54 196 11 15 48 72 83 127 69 108 179 250
256 330 92 97 207 196 220 190 8 -2 11 -1 8 4 -3 5 -1 12 5 16 6 3 13 -1 16
-9 6 -16 24 -12 24 5 0 6 -5 7 -10 4 -6 -3 -10 -3 -10 0 0 8 21 49 29 55 3 3
25 30 47 60 23 30 61 76 85 101 24 25 52 57 61 70 10 13 38 44 64 69 25 25 53
53 62 63 9 9 22 17 29 17 7 0 13 9 13 20 0 13 9 22 25 26 14 3 25 10 25 14 0
13 62 70 116 106 28 18 59 44 70 56 14 17 11 16 -14 -5 -19 -15 -43 -27 -55
-27 -24 0 -196 -63 -272 -101 -169 -81 -276 -155 -503 -344 l-36 -30 29 50
c43 75 46 78 105 126 194 155 428 278 683 358 82 26 101 27 93 5 -4 -9 7 -4
22 12 16 16 51 45 78 64 27 19 53 38 59 43 5 4 28 21 49 37 22 17 41 28 44 25
3 -2 12 3 21 13 9 10 43 36 76 57 33 21 86 55 118 76 32 22 60 39 63 39 3 0
25 14 50 31 24 16 53 31 64 32 11 1 20 4 20 7 0 3 13 11 29 18 31 14 79 52 66
52 -5 0 -17 -8 -27 -17 -16 -14 -45 -17 -171 -20 -269 -6 -574 -46 -782 -103
-38 -10 -71 -18 -72 -16 -1 1 10 17 25 34 24 28 40 35 137 57 246 54 658 91
853 75 34 -3 62 -2 62 1 0 4 11 10 25 13 14 4 25 11 25 17 0 6 4 7 10 4 5 -3
10 -1 10 5 0 7 5 10 12 8 6 -2 20 4 30 14 10 10 25 18 33 18 8 0 15 4 15 9 0
5 11 12 24 15 14 3 31 12 38 19 7 6 69 41 138 76 68 35 138 72 155 83 18 11
48 18 75 17 41 -1 42 -1 16 -9 -15 -5 -36 -16 -46 -25 -10 -9 -27 -17 -39 -18
-11 -1 -21 -4 -21 -8 0 -4 -10 -11 -22 -15 -12 -3 -28 -13 -36 -20 -7 -8 -18
-12 -23 -9 -5 4 -9 1 -9 -4 0 -6 -6 -11 -14 -11 -7 0 -19 -7 -26 -15 -7 -9
-19 -14 -27 -11 -7 3 -13 2 -13 -3 0 -4 -28 -22 -62 -40 -35 -18 -74 -39 -88
-47 -14 -8 -51 -26 -83 -40 -33 -14 -57 -28 -54 -31 3 -2 15 0 26 7 13 7 28 7
39 2 9 -5 73 -12 142 -16 133 -6 413 -40 673 -82 l159 -25 101 27 c56 15 127
32 157 39 30 7 78 19 105 28 74 22 341 96 413 113 59 15 74 26 53 39 -9 5
-198 47 -296 65 -131 24 -515 102 -540 109 -21 6 5 9 92 10 126 1 179 -7 543
-85 374 -80 346 -76 382 -60 18 8 67 26 108 42 79 29 201 78 236 95 11 6 40 9
65 7 35 -3 40 -5 24 -12 -11 -5 -48 -21 -83 -37 -34 -16 -65 -29 -70 -29 -4 0
-23 -8 -42 -18 -19 -11 -65 -30 -103 -43 -37 -13 -66 -28 -64 -34 4 -10 65
-24 527 -115 168 -33 337 -67 375 -75 39 -8 121 -24 184 -36 l113 -21 102 38
c241 90 604 262 613 291 2 5 -88 28 -199 51 l-203 41 160 -4 c147 -3 193 -8
298 -34 32 -8 42 -6 73 15 23 16 49 24 77 24 44 -1 43 -4 -10 -36 -10 -7 -16
-14 -13 -17 21 -22 897 -157 1016 -157 2 0 60 47 129 105 94 79 131 105 152
105 27 -1 25 -4 -37 -63 -36 -34 -86 -79 -113 -101 -26 -21 -47 -42 -47 -46 0
-4 23 -10 50 -14 86 -11 480 -36 581 -36 l97 0 75 78 c41 42 94 100 117 127
28 33 53 52 74 56 17 4 -2641 7 -5906 8 l-5938 1 0 -177z m580 152 c0 -12
-375 -272 -446 -308 -32 -16 -32 -16 -38 9 -4 15 -6 28 -4 29 2 1 30 20 63 40
98 62 278 183 310 210 21 17 42 24 73 25 23 0 42 -2 42 -5z m1340 0 c0 -3 -17
-28 -37 -56 l-38 -50 -3 41 c-2 23 2 48 9 56 11 13 69 21 69 9z m769 -14 c-8
-11 -54 -76 -104 -146 -49 -70 -98 -137 -108 -148 -18 -22 -18 -21 -12 28 7
50 20 73 137 233 32 43 44 52 70 52 28 0 29 -1 17 -19z m610 -48 c-36 -38 -92
-99 -125 -138 -32 -38 -61 -72 -64 -75 -13 -13 -120 -151 -154 -198 -21 -29
-40 -51 -43 -49 -2 3 3 30 12 60 17 60 129 208 286 380 73 79 84 87 117 87
l36 0 -65 -67z m909 33 c-42 -18 -102 -48 -133 -65 -32 -18 -59 -30 -62 -27
-3 3 5 21 17 41 33 54 99 84 185 84 l70 1 -77 -34z m-2418 -104 c0 -34 -17
-61 -162 -248 -166 -215 -330 -421 -478 -602 l-85 -103 -3 36 c-3 32 6 47 95
156 54 67 109 136 123 154 14 18 70 89 125 158 55 69 163 206 240 306 77 99
141 181 143 181 1 0 2 -17 2 -38z m2148 -13 c-15 -26 -49 -59 -100 -95 -162
-113 -380 -314 -524 -484 -32 -38 -60 -67 -61 -66 -2 1 6 30 17 63 19 53 35
74 158 199 75 77 182 175 237 220 104 83 274 204 288 204 5 0 -2 -18 -15 -41z
m3932 31 c0 -5 -4 -10 -10 -10 -5 0 -10 5 -10 10 0 6 5 10 10 10 6 0 10 -4 10
-10z m13030 -110 c11 0 20 -7 20 -15 0 -8 7 -15 15 -15 25 0 17 -17 -12 -28
-77 -28 -123 -39 -123 -28 0 19 30 56 46 56 19 0 18 26 -1 34 -8 3 -15 11 -15
17 0 7 9 6 25 -5 13 -9 33 -16 45 -16z m-18503 -167 c-6 -39 -22 -77 -47 -113
-102 -153 -331 -531 -500 -827 -50 -90 -94 -163 -97 -163 -3 0 -3 23 0 51 6
52 25 86 252 474 135 230 389 635 399 635 2 0 -1 -26 -7 -57z m1943 -78 c-18
-19 -67 -51 -109 -70 -200 -95 -384 -229 -584 -424 -137 -134 -146 -138 -98
-43 58 113 398 382 627 494 143 71 156 77 178 77 17 1 15 -5 -14 -34z m-1504
-141 c-8 -31 -19 -60 -23 -63 -36 -26 -336 -528 -493 -826 -29 -55 -56 -104
-60 -108 -3 -4 -2 22 3 59 7 51 22 89 68 171 33 58 59 107 59 109 0 2 20 38
45 80 25 41 45 77 45 79 0 8 130 219 228 370 85 131 133 197 139 192 2 -3 -3
-31 -11 -63z m21494 -69 c0 -8 -4 -15 -9 -15 -13 0 -22 16 -14 24 11 11 23 6
23 -9z m-21159 -186 c-10 -31 -47 -95 -82 -144 -149 -208 -343 -525 -448 -733
-12 -24 -24 -42 -27 -40 -2 3 3 38 12 78 16 69 80 191 207 395 113 182 345
511 353 502 2 -2 -4 -28 -15 -58z m10479 1 c0 -5 -4 -10 -10 -10 -5 0 -10 5
-10 10 0 6 5 10 10 10 6 0 10 -4 10 -10z m-12640 -248 c0 -35 -10 -50 -102
-153 -258 -288 -632 -644 -649 -618 -18 28 -7 46 68 111 161 138 412 393 598
606 44 51 81 92 83 92 1 0 2 -17 2 -38z m2410 -68 c-17 -38 -34 -71 -38 -74
-40 -29 -372 -509 -415 -600 -20 -41 -87 -143 -87 -132 0 40 40 147 79 211
115 184 356 531 391 561 3 3 25 29 49 58 24 29 45 51 47 49 3 -2 -9 -35 -26
-73z m291 -234 c-21 -39 -60 -94 -87 -123 -144 -151 -304 -378 -468 -662 -25
-44 -46 -76 -46 -72 0 4 7 38 17 74 28 113 214 401 402 623 62 74 208 230 215
230 2 0 -13 -32 -33 -70z m3819 60 c0 -5 -4 -10 -10 -10 -5 0 -10 5 -10 10 0
6 5 10 10 10 6 0 10 -4 10 -10z m-5832 -202 c-4 -45 -23 -83 -128 -263 -68
-115 -137 -235 -155 -265 -52 -90 -140 -234 -233 -379 l-87 -135 -3 41 c-3 38
5 54 68 153 81 126 326 534 450 752 47 82 87 148 89 148 2 0 1 -24 -1 -52z
m490 -156 c-7 -47 -38 -121 -132 -315 -67 -138 -183 -382 -257 -541 l-134
-289 -3 51 c-3 46 6 70 106 284 61 128 127 269 147 313 91 195 275 568 279
564 2 -2 -1 -32 -6 -67z m17222 54 c0 -3 -4 -8 -10 -11 -5 -3 -10 -1 -10 4 0
6 5 11 10 11 6 0 10 -2 10 -4z m-16877 -245 c-9 -44 -37 -121 -68 -185 -127
-267 -235 -510 -351 -796 -65 -159 -71 -164 -54 -48 10 66 62 198 215 543 71
160 267 567 271 562 1 -1 -4 -36 -13 -76z m268 -198 c-10 -41 -54 -144 -112
-258 -108 -216 -183 -376 -241 -518 -23 -53 -43 -96 -45 -94 -13 13 24 163 58
234 21 46 48 107 60 135 50 120 282 568 294 568 1 0 -5 -30 -14 -67z m25119
-23 c0 -5 -4 -10 -10 -10 -5 0 -10 5 -10 10 0 6 5 10 10 10 6 0 10 -4 10 -10z
m-24884 -278 c-8 -40 -18 -78 -24 -85 -32 -40 -230 -557 -297 -777 -40 -129
-44 -134 -44 -59 -1 55 9 94 59 242 59 176 151 413 208 537 77 168 103 222
107 218 3 -2 -1 -37 -9 -76z m288 -118 c-9 -49 -20 -97 -25 -106 -17 -33 -88
-233 -113 -318 -14 -47 -36 -123 -50 -170 -30 -101 -97 -379 -123 -505 l-18
-90 -3 86 c-2 76 3 112 47 290 79 322 166 593 277 867 9 23 19 41 20 39 2 -2
-4 -43 -12 -93z m-2360 -270 c-114 -161 -177 -245 -285 -379 -92 -114 -276
-325 -285 -325 -2 0 -4 15 -4 34 0 30 14 51 97 143 159 178 339 412 504 653
l44 65 3 -41 c3 -38 -4 -52 -74 -150z m12346 62 c0 -8 -4 -17 -9 -20 -10 -7
-23 19 -14 28 11 11 23 6 23 -8z m-11766 -389 c-31 -67 -86 -185 -121 -262
-36 -77 -126 -264 -201 -415 -136 -274 -137 -275 -140 -228 -3 43 8 69 115
285 65 131 137 279 160 328 23 50 59 128 81 175 66 141 117 253 138 299 l19
44 3 -52 c3 -46 -4 -67 -54 -174z m782 -8 c-8 -51 -34 -137 -65 -219 -64 -164
-179 -482 -260 -720 l-60 -175 0 65 c-1 54 8 92 54 225 31 88 66 192 79 230
29 85 183 498 202 540 7 17 23 56 35 88 11 32 23 57 25 55 2 -2 -3 -42 -10
-89z m-344 -37 c-9 -63 -32 -130 -157 -452 -155 -401 -276 -704 -283 -712 -4
-4 -4 25 -1 65 6 63 34 142 224 624 120 304 220 551 222 549 3 -2 0 -35 -5
-74z m25458 -282 c0 -5 -4 -10 -9 -10 -6 0 -13 5 -16 10 -3 6 1 10 9 10 9 0
16 -4 16 -10z m-24839 -207 c-19 -64 -225 -870 -259 -1013 l-15 -65 -9 35 c-6
19 -8 50 -6 70 5 41 199 805 261 1025 l42 150 3 -67 c2 -46 -4 -89 -17 -135z
m25314 -123 c3 -5 -3 -10 -14 -10 -12 0 -21 5 -21 10 0 6 6 10 14 10 8 0 18
-4 21 -10z m-24995 -364 c-16 -105 -35 -218 -40 -251 -14 -84 -87 -607 -96
-682 -3 -35 -10 -63 -14 -63 -8 0 -22 143 -15 162 3 7 25 157 50 333 50 347
121 788 133 820 4 13 8 -7 10 -54 2 -47 -8 -142 -28 -265z m11900 114 c0 -5
-4 -10 -9 -10 -6 0 -13 5 -16 10 -3 6 1 10 9 10 9 0 16 -4 16 -10z m-11565
-285 c-10 -98 -24 -242 -40 -420 -15 -177 -22 -255 -47 -585 l-12 -165 -13 80
c-10 61 -11 111 -3 210 24 306 30 379 44 540 9 94 26 265 38 380 l23 210 8
-100 c4 -55 5 -122 2 -150z m-2235 168 c-4 -44 -17 -78 -55 -143 -83 -146
-186 -310 -269 -433 -45 -65 -88 -129 -96 -141 -33 -47 -141 -185 -150 -191
-6 -3 -10 0 -10 9 0 8 -2 21 -5 28 -3 8 15 41 41 73 145 186 285 400 439 668
59 103 108 187 109 187 1 0 -1 -26 -4 -57z m807 -452 c-344 -1046 -342 -1040
-345 -976 -2 54 12 103 141 495 79 239 168 510 198 602 l54 168 3 -62 c3 -52
-5 -86 -51 -227z m-351 146 c-5 -49 -29 -115 -105 -293 -113 -263 -221 -497
-310 -669 l-62 -120 5 55 c3 43 23 94 93 240 103 213 228 494 343 773 17 42
34 77 37 77 3 0 3 -28 -1 -63z m7964 -146 c0 -12 -11 -23 -30 -30 -35 -12 -40
1 -13 31 21 23 43 23 43 -1z m7560 -201 c0 -5 -4 -10 -10 -10 -5 0 -10 5 -10
10 0 6 5 10 10 10 6 0 10 -4 10 -10z m-14754 -251 c-128 -500 -264 -1006 -277
-1029 -17 -30 -9 122 10 188 58 197 167 610 254 957 l32 129 9 -50 c7 -43 3
-72 -28 -195z m484 -389 c-14 -96 -116 -711 -134 -810 -59 -312 -70 -363 -77
-344 -17 44 -5 150 51 429 18 90 128 758 135 820 11 96 18 107 27 40 5 -36 4
-90 -2 -135z m-1784 -156 c-7 -60 -27 -101 -144 -299 -129 -217 -327 -509
-411 -605 l-30 -35 -1 33 c0 26 19 60 91 160 159 221 352 530 454 725 22 42
42 77 44 77 2 0 1 -25 -3 -56z m2188 -184 c-2 -19 -11 -120 -19 -225 -35 -439
-33 -422 -75 -819 -11 -104 -22 -191 -24 -193 -4 -5 -21 138 -17 151 4 16 44
444 61 646 6 69 19 238 30 375 11 138 21 255 21 260 1 6 7 -28 14 -75 7 -47
11 -101 9 -120z m-1707 32 c-3 -38 -14 -91 -25 -118 -11 -27 -51 -130 -87
-229 -81 -215 -233 -579 -304 -725 l-51 -105 4 55 c2 43 20 92 78 220 110 244
297 724 373 958 11 32 16 5 12 -56z m1988 -437 c-2 -16 -7 -191 -11 -387 -4
-197 -8 -368 -9 -380 -1 -13 -4 -88 -5 -168 -2 -122 -4 -138 -12 -100 -14 63
-15 271 -4 885 l10 530 18 -175 c10 -96 16 -188 13 -205z m6355 330 c7 -9 10
-18 7 -21 -7 -8 -47 14 -47 26 0 15 26 12 40 -5z m-7849 -340 c1 -49 -12 -104
-74 -305 -77 -248 -166 -513 -232 -695 -20 -55 -44 -120 -53 -145 l-16 -45
-10 34 c-8 29 -5 47 18 110 77 210 204 594 276 831 17 58 35 116 40 130 4 14
16 53 25 88 10 34 20 61 21 59 2 -2 4 -30 5 -62z m1596 -327 c-2 -13 -4 -3 -4
22 0 25 2 35 4 23 2 -13 2 -33 0 -45z m-1032 -288 c-29 -181 -157 -704 -258
-1049 -41 -144 -42 -144 -49 -101 -6 37 1 74 43 225 56 198 166 643 198 800
11 55 27 132 36 170 8 39 15 75 16 80 1 6 5 -12 10 -40 5 -27 7 -66 4 -85z
m-1621 -315 c-86 -167 -137 -260 -207 -375 -81 -134 -265 -411 -301 -455 l-25
-30 -1 34 c0 22 11 48 34 80 149 205 366 568 493 824 l48 98 3 -43 c2 -36 -6
-60 -44 -133z m2121 -155 c-3 -36 -10 -94 -15 -130 -57 -374 -70 -456 -106
-640 -26 -137 -84 -414 -88 -417 -9 -9 -14 97 -6 137 9 47 28 142 55 275 29
144 94 550 120 750 8 66 18 136 22 155 l6 35 9 -50 c5 -27 6 -79 3 -115z
m-1531 -337 c-146 -347 -424 -923 -446 -923 -29 0 3 85 136 353 79 161 181
380 226 487 45 107 89 213 98 235 l17 40 3 -52 c2 -42 -4 -69 -34 -140z m1905
93 c11 -78 -2 -359 -29 -616 -5 -52 -12 -122 -15 -155 -14 -157 -55 -498 -62
-515 -14 -34 -18 100 -6 199 34 281 68 662 84 953 7 120 14 217 15 215 1 -1 7
-38 13 -81z m1106 64 c3 -5 1 -10 -4 -10 -6 0 -11 5 -11 10 0 6 2 10 4 10 3 0
8 -4 11 -10z m-895 -410 c9 -128 11 -288 6 -520 -3 -184 -6 -364 -6 -400 0
-36 -5 -72 -10 -80 -7 -11 -10 6 -10 55 0 39 -1 336 -3 660 -2 595 0 621 23
285z m-1430 -235 c0 -89 -195 -620 -357 -973 l-67 -146 -8 38 c-5 21 -4 44 0
50 5 6 33 65 62 131 29 66 58 134 66 150 64 142 216 553 266 717 12 43 26 78
31 78 4 0 7 -20 7 -45z m587 -575 c-60 -257 -209 -743 -309 -1007 -32 -84 -33
-85 -40 -52 -5 27 5 65 52 194 87 242 204 635 271 915 l23 95 7 -50 c3 -27 2
-70 -4 -95z m-1784 17 c-20 -41 -177 -289 -251 -397 -69 -101 -266 -363 -314
-418 l-28 -33 0 36 c0 30 13 52 73 128 146 182 351 482 468 685 53 91 54 92
60 60 3 -19 -1 -45 -8 -61z m2267 -397 c3 -119 -106 -635 -223 -1060 -30 -111
-32 -114 -38 -75 -6 31 1 71 32 180 68 248 146 608 191 882 24 146 36 170 38
73z m-1576 -322 c-108 -213 -304 -529 -490 -788 l-39 -55 -3 34 c-2 22 3 43
16 60 158 215 383 580 508 824 l29 57 3 -39 c2 -28 -5 -56 -24 -93z m1882 -85
c-3 -109 -11 -225 -16 -258 -6 -33 -13 -80 -15 -105 -6 -50 -9 -74 -31 -210
-8 -52 -19 -124 -24 -160 -12 -86 -39 -231 -46 -250 -3 -8 -8 -33 -10 -54 -8
-71 -16 -53 -12 24 3 41 21 170 40 285 34 198 54 341 78 550 23 206 30 286 30
329 0 25 3 46 7 46 3 0 3 -89 -1 -197z m-1222 -531 c-58 -137 -204 -435 -280
-572 -101 -182 -178 -309 -186 -310 -16 0 -7 68 11 91 10 13 32 49 49 79 17
30 51 91 77 135 64 111 241 474 306 628 l54 129 3 -46 c2 -36 -5 -67 -34 -134z
m23596 168 c0 -5 -4 -10 -9 -10 -6 0 -13 5 -16 10 -3 6 1 10 9 10 9 0 16 -4
16 -10z m-24866 -498 c-114 -150 -413 -488 -558 -632 -83 -81 -86 -83 -86 -55
1 24 21 50 96 130 197 206 381 416 519 594 40 51 40 51 48 26 7 -21 3 -33 -19
-63z m1876 -39 c0 -91 -202 -599 -364 -918 -63 -125 -71 -137 -74 -107 -2 23
12 64 54 150 107 221 189 409 254 582 17 47 37 99 44 115 7 17 26 72 42 122
16 51 32 93 37 93 4 0 7 -17 7 -37z m25141 -313 c10 -6 19 -17 19 -25 0 -22
17 -18 54 10 18 14 38 25 45 25 13 0 31 -41 31 -71 0 -16 -72 -93 -89 -94 -3
-1 -16 -6 -28 -13 -13 -7 -30 -9 -42 -4 -21 7 -20 9 14 42 37 36 43 54 22 67
-8 4 -16 16 -20 25 -6 17 -47 14 -47 -3 0 -5 -5 -9 -11 -9 -8 0 -8 4 0 14 6 8
11 18 10 22 -4 26 10 31 42 14z m-19201 -36 c0 -8 -5 -12 -10 -9 -6 4 -8 11
-5 16 9 14 15 11 15 -7z m-5551 -156 c-7 -24 -13 -54 -15 -67 -2 -13 -8 -29
-13 -34 -6 -6 -11 -20 -11 -31 0 -19 -81 -287 -100 -331 -4 -11 -23 -60 -41
-110 -50 -142 -55 -154 -98 -255 -39 -92 -40 -94 -41 -53 0 25 6 48 16 57 8 9
13 20 10 25 -4 5 -1 15 6 23 7 7 14 18 15 23 3 14 32 96 42 120 24 56 54 145
96 280 26 83 51 157 55 165 4 8 25 85 46 170 35 139 39 150 42 108 2 -26 -2
-66 -9 -90z m-1519 -72 c0 -27 -20 -61 -92 -164 -165 -231 -336 -442 -500
-617 -47 -49 -48 -50 -48 -22 0 22 22 53 93 134 170 193 358 434 491 631 27
39 51 72 53 72 2 0 3 -15 3 -34z m-1546 -255 c-55 -51 -125 -116 -157 -143
l-57 -50 0 29 c0 25 23 51 153 171 144 135 152 141 156 115 3 -24 -11 -41 -95
-122z m18446 -126 c0 -8 -4 -15 -10 -15 -5 0 -10 7 -10 15 0 8 5 15 10 15 6 0
10 -7 10 -15z m-7855 -45 c3 -5 1 -10 -4 -10 -6 0 -11 5 -11 10 0 6 2 10 4 10
3 0 8 -4 11 -10z m-8481 -291 c-130 -224 -283 -447 -442 -648 -78 -98 -82
-102 -82 -71 0 25 13 49 53 99 78 97 185 244 267 365 78 116 231 369 252 417
l13 30 3 -39 c3 -33 -7 -57 -64 -153z m25413 129 c-3 -8 -6 -5 -6 6 -1 11 2
17 5 13 3 -3 4 -12 1 -19z m-26904 -538 c-234 -231 -455 -440 -467 -440 -3 0
-6 11 -6 23 0 18 34 56 128 143 70 65 226 216 347 336 203 201 220 216 223
191 3 -24 -24 -55 -225 -253z m2042 94 c-3 -19 -10 -34 -15 -34 -5 0 -14 -17
-20 -37 -7 -21 -19 -46 -28 -55 -8 -10 -11 -18 -6 -18 5 0 5 -4 -1 -8 -5 -4
-26 -40 -45 -79 -19 -40 -38 -73 -42 -73 -5 0 -8 -7 -8 -15 0 -8 -5 -15 -10
-15 -6 0 -9 -4 -8 -8 4 -11 -35 -82 -44 -82 -5 0 -8 -6 -8 -14 0 -8 -8 -22
-17 -32 -10 -10 -16 -19 -14 -22 5 -5 -251 -393 -256 -388 -8 7 18 86 27 86 6
0 10 7 10 15 0 8 5 15 10 15 6 0 10 7 10 15 0 8 5 15 10 15 6 0 10 6 10 13 0
7 10 23 23 37 13 14 26 33 29 42 6 15 22 39 80 127 10 14 22 35 28 46 6 11 16
29 23 40 67 110 123 213 204 375 56 111 72 126 58 54z m6305 -384 c0 -5 -4
-10 -10 -10 -5 0 -10 5 -10 10 0 6 5 10 10 10 6 0 10 -4 10 -10z m-7450 -109
c0 -38 -170 -230 -473 -536 -193 -195 -217 -216 -211 -186 4 25 31 59 98 126
245 248 388 400 527 562 30 35 55 63 57 63 1 0 2 -13 2 -29z m-1430 -79 c0
-23 -15 -41 -74 -93 -41 -35 -75 -70 -75 -76 -1 -7 -6 -13 -12 -13 -6 0 -40
-28 -75 -62 l-64 -61 1 34 c1 31 14 47 147 166 81 73 148 133 150 133 1 0 2
-13 2 -28z m1965 -413 c-7 -31 -85 -146 -109 -161 -6 -4 -11 -11 -11 -16 0
-11 -191 -253 -202 -255 -4 -1 -26 -26 -49 -57 -23 -30 -56 -71 -75 -90 -19
-19 -51 -55 -71 -80 -64 -77 -151 -166 -144 -147 3 10 6 24 6 30 0 16 66 87
80 87 6 0 9 4 6 9 -4 5 6 22 21 38 16 16 53 58 83 93 30 36 60 70 66 75 5 6
30 35 54 65 24 30 52 64 62 75 46 50 72 81 111 133 23 32 45 59 50 60 4 2 7
10 7 17 0 7 4 15 8 17 4 2 23 24 42 51 18 26 37 47 41 47 3 0 9 9 12 20 9 33
19 23 12 -11z m-1292 -301 c-6 -35 -24 -54 -299 -313 -76 -71 -195 -185 -264
-252 -117 -113 -125 -120 -128 -95 -4 29 -11 22 323 337 87 83 206 196 264
252 58 56 107 102 108 103 1 0 0 -15 -4 -32z m12778 -141 c-16 -16 -25 -1 -10
16 8 8 16 11 18 5 2 -5 -2 -15 -8 -21z m-11821 -117 c0 -5 -4 -10 -10 -10 -5
0 -10 5 -10 10 0 6 5 10 10 10 6 0 10 -4 10 -10z m2460 0 c0 -5 -4 -10 -10
-10 -5 0 -10 5 -10 10 0 6 5 10 10 10 6 0 10 -4 10 -10z m-2870 -330 c-10 -36
-111 -150 -132 -150 -5 0 -8 -4 -8 -10 0 -13 -397 -410 -410 -410 -5 0 -10 -4
-10 -9 0 -9 -119 -131 -128 -131 -2 0 -1 11 2 25 4 14 41 59 84 101 150 145
218 213 304 303 48 50 91 91 94 90 4 0 10 5 15 13 7 12 192 208 196 208 1 0
-2 -14 -7 -30z m-1310 -143 c0 -16 -31 -54 -102 -125 -97 -96 -103 -100 -106
-75 -3 22 12 42 95 124 54 53 101 97 106 98 4 0 7 -9 7 -22z m536 -632 c-7
-26 -17 -37 -261 -270 -86 -82 -200 -193 -253 -245 -85 -83 -97 -92 -100 -72
-3 16 11 36 50 72 111 105 333 317 393 378 35 34 68 62 74 62 6 0 11 4 11 9 0
8 80 91 88 91 3 0 1 -11 -2 -25z m15690 -437 c-3 -13 -6 -35 -6 -50 0 -47 -37
-27 -61 32 -6 16 23 37 55 39 14 1 17 -4 12 -21z m-16392 -235 c-4 -16 -15
-37 -25 -48 -19 -19 -19 -19 -19 3 0 18 35 72 47 72 2 0 0 -12 -3 -27z m20376
-47 c0 -3 -4 -8 -10 -11 -5 -3 -10 -1 -10 4 0 6 5 11 10 11 6 0 10 -2 10 -4z
m5860 -152 c0 -8 -4 -12 -10 -9 -5 3 -10 10 -10 16 0 5 5 9 10 9 6 0 10 -7 10
-16z m-4260 -1700 c0 -9 -5 -14 -12 -12 -18 6 -21 28 -4 28 9 0 16 -7 16 -16z
m5705 -364 c3 -5 1 -10 -4 -10 -6 0 -11 5 -11 10 0 6 2 10 4 10 3 0 8 -4 11
-10z m-3768 -456 c-3 -3 -12 -4 -19 -1 -8 3 -5 6 6 6 11 1 17 -2 13 -5z
m-10399 -83 c3 -8 -1 -12 -9 -9 -7 2 -15 10 -17 17 -3 8 1 12 9 9 7 -2 15 -10
17 -17z m-8572 -446 c-18 -27 -46 -34 -46 -10 0 8 6 15 14 15 7 0 19 7 26 15
20 24 25 9 6 -20z"/>
<path d="M11775 19513 c-60 -69 -111 -129 -113 -133 -1 -4 99 -11 223 -15
l226 -7 57 43 c31 23 106 81 165 128 l109 86 -49 12 c-32 8 -125 12 -278 12
l-230 0 -110 -126z"/>
<path d="M12554 19627 c-35 -13 -324 -235 -324 -249 0 -25 310 25 452 73 64
21 110 48 233 138 l70 51 -200 -1 c-130 0 -211 -4 -231 -12z"/>
<path d="M9645 19521 c-6 -4 -46 -27 -90 -51 -193 -103 -351 -176 -507 -236
-43 -16 -76 -33 -75 -38 5 -16 477 -92 842 -137 236 -29 212 -31 355 28 79 33
330 158 375 186 109 68 137 90 124 97 -8 4 -77 15 -154 24 -159 20 -514 75
-716 111 -159 29 -143 27 -154 16z"/>
<path d="M7445 19396 c-38 -13 -119 -38 -180 -55 -60 -17 -130 -38 -155 -45
-25 -8 -115 -30 -200 -51 -241 -58 -245 -62 -85 -89 55 -9 190 -32 300 -51
110 -19 245 -42 300 -50 55 -8 189 -30 298 -49 191 -33 201 -33 265 -19 37 7
99 20 137 27 90 17 233 53 529 132 51 14 63 20 54 29 -7 7 -111 30 -323 70
-260 49 -445 87 -727 149 -65 14 -123 26 -130 26 -7 0 -44 -11 -83 -24z"/>
<path d="M10665 19295 c-109 -72 -302 -176 -422 -228 -35 -14 -63 -31 -63 -36
0 -16 205 -26 545 -26 l331 0 94 49 c107 55 185 106 282 183 75 59 85 71 66
77 -7 3 -94 7 -193 10 -164 6 -496 31 -520 40 -6 2 -60 -29 -120 -69z"/>
<path d="M12405 19334 c-44 -7 -124 -16 -177 -20 -105 -7 -99 -5 -227 -97
-129 -93 -125 -95 79 -33 224 68 410 139 410 156 0 6 -1 9 -2 9 -2 -1 -39 -8
-83 -15z"/>
<path d="M11540 19268 c-84 -77 -190 -157 -255 -193 -36 -20 -65 -41 -65 -46
0 -11 -19 -12 169 11 312 40 359 55 491 150 30 22 76 54 103 71 26 18 47 36
47 41 0 4 -100 8 -222 8 l-223 -1 -45 -41z"/>
<path d="M5483 19287 c-4 -7 -35 -29 -68 -47 -33 -19 -62 -37 -63 -42 -2 -4
-8 -6 -13 -2 -5 3 -9 0 -9 -5 0 -6 -6 -11 -14 -11 -7 0 -19 -7 -26 -15 -7 -8
-36 -26 -66 -41 -30 -14 -54 -30 -54 -34 0 -4 -8 -10 -17 -14 -18 -5 -53 -26
-63 -36 -15 -15 -132 -90 -140 -90 -6 0 -10 -3 -10 -8 0 -4 -18 -18 -40 -32
-39 -24 -53 -50 -27 -50 6 0 28 4 47 9 59 16 346 42 515 47 133 4 171 8 230
28 138 46 423 131 475 141 19 4 40 11 45 15 6 4 58 17 118 30 60 13 106 28
104 34 -7 22 -686 106 -861 106 -42 0 -47 2 -36 15 10 12 10 15 -3 15 -9 0
-20 -6 -24 -13z"/>
<path d="M8730 19124 c-112 -38 -451 -125 -563 -145 -76 -14 -83 -31 -16 -41
343 -52 627 -90 916 -122 111 -12 131 -11 215 5 262 51 630 152 612 168 -5 5
-88 18 -184 30 -263 34 -499 71 -850 135 -14 3 -72 -11 -130 -30z"/>
<path d="M6505 19140 c-62 -16 -304 -81 -410 -110 -60 -17 -132 -36 -160 -43
-27 -8 -59 -18 -70 -24 -11 -6 -39 -14 -62 -18 -27 -4 -43 -12 -43 -21 0 -11
16 -14 68 -14 131 0 725 -45 957 -71 107 -13 171 -7 620 56 94 13 197 27 230
31 69 7 100 19 75 28 -15 6 -270 49 -390 67 -36 5 -220 36 -410 69 -364 63
-358 62 -405 50z"/>
<path d="M11360 18984 c-52 -7 -140 -16 -195 -20 -77 -5 -111 -12 -150 -32
-27 -14 -103 -46 -168 -72 -65 -27 -121 -51 -124 -54 -24 -24 289 25 474 74
127 34 301 94 317 110 13 13 -30 12 -154 -6z"/>
<path d="M9884 18930 c-78 -27 -206 -65 -285 -85 -79 -20 -151 -38 -159 -42
-64 -23 273 -42 685 -38 315 3 305 2 515 71 144 48 260 95 260 105 0 5 -89 9
-197 9 -179 0 -418 10 -608 24 -65 5 -80 2 -211 -44z"/>
<path d="M7830 18914 c-75 -14 -504 -77 -613 -90 -61 -7 -83 -20 -45 -28 13
-3 88 -12 168 -21 80 -9 215 -26 300 -38 135 -19 194 -22 460 -20 168 1 341 4
385 7 142 11 430 39 435 43 9 8 -26 23 -57 23 -30 0 -120 12 -473 61 -141 19
-440 66 -470 73 -8 2 -49 -2 -90 -10z"/>
<path d="M4809 18853 c-20 -22 -21 -24 -4 -15 39 22 47 29 38 35 -6 4 -21 -5
-34 -20z"/>
<path d="M5560 18863 c-8 -3 -58 -21 -110 -40 -212 -76 -596 -256 -585 -273 3
-5 36 0 73 11 176 50 524 107 777 128 66 5 183 19 260 30 138 19 421 54 543
67 70 7 89 20 40 28 -50 8 -495 35 -748 46 -249 11 -229 10 -250 3z"/>
<path d="M5144 18849 c-50 -4 -145 -17 -210 -29 -183 -32 -192 -33 -171 -20 9
6 17 15 17 21 0 15 -38 -13 -51 -38 -7 -12 -19 -25 -28 -28 -9 -3 -37 -24 -62
-47 -25 -24 -63 -56 -85 -73 -36 -28 -316 -305 -308 -305 2 0 -20 -24 -49 -54
-28 -29 -67 -76 -85 -102 l-34 -49 41 45 c22 25 41 48 41 52 0 4 9 10 21 13
11 4 60 29 107 57 78 45 139 76 292 147 25 11 88 47 140 80 113 72 113 71 265
148 122 62 300 140 368 162 20 7 37 17 37 22 0 11 -116 10 -246 -2z"/>
<path d="M6805 18775 c-5 -2 -77 -11 -159 -19 -140 -15 -166 -20 -155 -30 7
-7 799 -10 805 -3 15 15 -461 65 -491 52z"/>
<path d="M9115 18745 c-108 -20 -415 -54 -562 -61 -129 -7 -167 -17 -100 -28
51 -9 343 -25 567 -31 318 -10 832 23 1030 66 50 11 53 13 30 21 -14 5 -34 7
-45 4 -42 -11 -735 21 -830 39 -11 2 -51 -3 -90 -10z"/>
<path d="M4970 18520 c-74 -21 -160 -47 -190 -58 -30 -11 -80 -29 -111 -40
-31 -11 -81 -37 -110 -57 -118 -82 -319 -258 -308 -269 3 -4 42 20 85 52 43
33 93 66 109 76 17 9 48 28 70 41 142 87 387 198 553 250 50 16 92 32 92 37 0
15 -55 6 -190 -32z"/>
<path d="M4189 18174 c-79 -53 -147 -102 -151 -108 -9 -14 -21 -32 -52 -76
-60 -86 -178 -302 -238 -435 -22 -49 -45 -93 -51 -97 -6 -4 -9 -10 -5 -13 12
-12 47 34 138 182 129 209 245 357 393 505 175 176 172 179 -34 42z"/>
<path d="M3990 18048 l-23 -33 28 27 c16 15 26 30 23 33 -3 4 -16 -9 -28 -27z"/>
<path d="M3670 17385 c0 -8 2 -15 4 -15 2 0 6 7 10 15 3 8 1 15 -4 15 -6 0
-10 -7 -10 -15z"/>
<path d="M3638 17297 c-3 -19 -2 -25 4 -19 6 6 8 18 6 28 -3 14 -5 12 -10 -9z"/>
<path d="M3605 17209 c-4 -6 -5 -12 -2 -15 2 -3 7 2 10 11 7 17 1 20 -8 4z"/>
<path d="M3587 17123 c-4 -3 -7 -11 -7 -17 0 -6 5 -5 12 2 6 6 9 14 7 17 -3 3
-9 2 -12 -2z"/>
<path d="M3550 16999 c0 -11 5 -17 10 -14 6 3 10 13 10 21 0 8 -4 14 -10 14
-5 0 -10 -9 -10 -21z"/>
<path d="M3511 16894 c0 -11 3 -14 6 -6 3 7 2 16 -1 19 -3 4 -6 -2 -5 -13z"/>
<path d="M3487 16773 c-4 -3 -7 -20 -6 -37 l1 -31 8 35 c9 36 8 45 -3 33z"/>
<path d="M3452 16320 c0 -14 2 -19 5 -12 2 6 2 18 0 25 -3 6 -5 1 -5 -13z"/>
<path d="M3451 16234 c0 -11 3 -14 6 -6 3 7 2 16 -1 19 -3 4 -6 -2 -5 -13z"/>
<path d="M3401 15313 c0 -123 2 -223 7 -223 7 0 5 379 -2 425 -2 11 -4 -80 -5
-202z"/>
<path d="M3413 14925 c0 -44 2 -61 4 -37 2 23 2 59 0 80 -2 20 -4 1 -4 -43z"/>
<path d="M3412 14770 c0 -14 2 -19 5 -12 2 6 2 18 0 25 -3 6 -5 1 -5 -13z"/>
<path d="M3420 14426 c0 -9 5 -16 10 -16 6 0 10 4 10 9 0 6 -4 13 -10 16 -5 3
-10 -1 -10 -9z"/>
<path d="M3431 14344 c0 -11 3 -14 6 -6 3 7 2 16 -1 19 -3 4 -6 -2 -5 -13z"/>
</g>
</svg>
